# Blender v2.90.1 OBJ File: ''
# www.blender.org
mtllib cornerWall.mtl
o Cube.001
v -1.000000 3.000000 1.000000
v -1.000000 3.000001 -5.000000
v -1.000000 -2.999999 -5.000000
v -1.000000 -3.000000 1.000000
v 1.000000 3.000000 -1.000000
v 1.000000 3.000000 1.000000
v 5.000062 3.000000 1.000000
v 5.000062 3.000000 -1.000000
v 1.000000 3.000001 -5.000000
v 1.000000 -2.999999 -5.000000
v 1.019371 -3.000000 -1.000000
v 1.000000 -3.000000 -1.000000
v 5.000062 -3.000000 -1.000000
v 5.000062 -3.000000 1.000000
v 1.000000 -3.000000 1.000000
v 5.000062 3.000000 1.000000
v 5.000062 3.000000 -1.000000
v 5.000062 -3.000000 -1.000000
v 5.000062 -3.000000 1.000000
v 7.026552 3.000000 1.000000
v 7.026552 3.000000 -1.000000
v 7.026552 -3.000000 -1.000000
v 7.026552 -3.000000 1.000000
v -1.000000 3.000001 -7.024121
v -1.000000 -2.999999 -7.024122
v 1.000000 -2.999999 -7.024122
v 1.000000 3.000001 -7.024121
vt 1.035689 1.045831
vt -0.019055 1.045831
vt -0.019055 -0.008920
vt 1.035689 -0.008920
vt 0.327133 0.746102
vt -0.001132 0.739901
vt 0.005069 0.011234
vt 0.333333 0.017435
vt -0.019055 1.045831
vt -0.019055 -0.008920
vt 1.005590 1.003902
vt -0.007558 1.003902
vt -0.007559 0.735966
vt 0.330158 0.735966
vt 1.005590 0.735966
vt 0.535086 1.000603
vt 1.342028 0.997502
vt 1.345601 -0.046304
vt 0.929679 -0.055605
vt 0.538191 -0.052505
vt 1.000000 0.723232
vt 0.919767 0.726333
vt 0.708940 0.730112
vt 0.708940 0.003100
vt 1.000000 0.000000
vt 0.015343 0.733335
vt 0.669623 0.733335
vt 0.996763 0.733335
vt 0.996763 1.000333
vt 0.015344 1.000333
vt 0.334806 -0.005768
vt 1.011909 -0.005768
vt 1.011909 1.003801
vt 0.334806 1.003802
vt -0.003740 1.003802
vt -0.003740 -0.005768
vt 0.634653 -0.014759
vt 0.637348 1.012464
vt 0.003268 1.009364
vt 0.003268 -0.017859
vt 0.330848 0.003476
vt -0.000073 0.003476
vt -0.000073 0.996231
vt 0.330848 0.996230
vt 0.330848 0.003476
vt 0.330848 0.996230
vt -0.000073 0.996231
vt -0.000073 0.003476
vt 0.994732 0.004112
vt 0.994732 1.004111
vt 0.712452 1.004111
vt 0.712452 0.004112
vt 1.005590 0.735966
vt 1.005590 1.003902
vt 0.538191 -0.052505
vt 0.535086 1.000603
vt 0.015344 1.000333
vt 0.015343 0.733335
vn -1.0000 0.0000 0.0000
vn -0.0000 1.0000 0.0000
vn -0.7071 -0.7071 -0.0000
vn -0.7071 0.7071 0.0000
vn 1.0000 0.0000 -0.0024
vn 0.0000 0.0000 0.0000
vn 0.0000 -1.0000 -0.0000
vn 0.0000 -0.0000 1.0000
vn 0.0000 0.0000 -1.0000
vn 1.0000 0.0000 0.0000
vn 0.0000 0.7071 0.7071
vn 0.0000 -0.7071 0.7071
vn 0.0000 -0.7071 -0.7071
vn 0.0000 0.7071 -0.7071
vn 0.7071 0.7071 0.0000
vn 0.7071 -0.7071 -0.0000
usemtl Material.001
s 1
f 1/1/1 2/2/1 3/3/1 4/4/1
f 5/5/2 6/6/2 7/7/2 8/8/2
f 3/3/3 2/2/4 24/9/4 25/10/3
f 2/11/2 1/12/2 6/13/2 5/14/2 9/15/2
f 9/16/5 5/17/5 11/18/6 12/19/6 10/20/5
f 15/21/7 12/22/7 11/23/7 13/24/7 14/25/7
f 10/26/7 12/27/7 15/28/7 4/29/7 3/30/7
f 15/31/8 14/32/8 7/33/8 6/34/8 1/35/8 4/36/8
f 11/37/9 5/38/9 8/39/9 13/40/9
f 18/41/1 19/42/1 16/43/1 17/44/1
f 22/45/10 21/46/10 20/47/10 23/48/10
f 16/43/11 19/42/12 23/48/12 20/47/11
f 19/42/12 18/41/13 22/45/13 23/48/12
f 18/41/13 17/44/14 21/46/14 22/45/13
f 17/44/14 16/43/11 20/47/11 21/46/14
f 25/49/9 24/50/9 27/51/9 26/52/9
f 2/11/4 9/15/15 27/53/15 24/54/4
f 9/16/15 10/20/16 26/55/16 27/56/15
f 10/26/16 3/30/3 25/57/3 26/58/16
