# Blender v2.90.1 OBJ File: ''
# www.blender.org
mtllib cornerWall.mtl
o Cube
v 1.000000 3.000000 -1.000000
v 1.000000 -3.000000 -1.000000
v 1.000000 3.000000 1.000000
v 1.000000 -3.000000 1.000000
v -1.000000 3.000000 -1.000000
v -1.000000 -3.000000 -1.000000
v -1.000000 3.000000 1.000000
v -1.000000 -3.000000 1.000000
v 7.000000 3.000000 -1.000000
v 7.000000 -3.000000 -1.000000
v 7.000000 3.000000 1.000000
v 7.000000 -3.000000 1.000000
v 1.000000 -3.000000 -7.000000
v -1.000000 -3.000000 -7.000000
v 1.000000 3.000000 -7.000000
v -1.000000 3.000000 -7.000000
vt 0.875000 0.375000
vt 1.000000 0.375000
vt 1.000000 0.500000
vt 0.875000 0.500000
vt 0.000000 0.875000
vt 0.125000 0.875000
vt 0.125000 1.000000
vt 0.000000 1.000000
vt 0.250000 1.000000
vt 0.125000 0.875000
vt 0.250000 0.875000
vt 0.375000 0.500000
vt 0.375000 0.375000
vt 0.500000 0.375000
vt 0.500000 0.500000
vt 0.000000 0.500000
vt 0.125000 0.500000
vt 0.375000 0.875000
vt 0.250000 0.875000
vt 0.250000 0.500000
vt 0.375000 0.500000
vt 0.625000 0.750000
vt 0.500000 0.750000
vt 0.500000 0.625000
vt 0.625000 0.625000
vt 0.375000 0.500000
vt 0.500000 0.500000
vt 0.500000 0.875000
vt 0.375000 0.875000
vt 0.375000 0.000000
vt 0.500000 0.000000
vt 0.500000 0.500000
vt 0.500000 0.375000
vt 0.625000 0.500000
vt 0.625000 0.625000
vt 0.500000 0.625000
vt 0.500000 0.500000
vt 0.125000 0.500000
vt 0.250000 0.500000
vt 0.000000 0.500000
vt 0.000000 0.375000
vt 0.875000 0.000000
vt 1.000000 0.000000
vn 0.0000 1.0000 0.0000
vn 0.0000 0.0000 1.0000
vn -1.0000 0.0000 0.0000
vn 0.0000 -1.0000 0.0000
vn 1.0000 0.0000 0.0000
vn 0.0000 0.0000 -1.0000
usemtl Material
s off
f 1/1/1 5/2/1 7/3/1 3/4/1
f 4/5/2 3/6/2 7/7/2 8/8/2
f 8/9/3 7/7/3 5/10/3 6/11/3
f 6/12/4 2/13/4 4/14/4 8/15/4
f 3/6/2 4/5/2 12/16/2 11/17/2
f 1/18/5 2/19/5 13/20/5 15/21/5
f 10/22/5 9/23/5 11/24/5 12/25/5
f 2/26/6 1/27/6 9/28/6 10/29/6
f 4/14/4 2/13/4 10/30/4 12/31/4
f 1/1/1 3/4/1 11/32/1 9/33/1
f 14/34/6 16/35/6 15/36/6 13/37/6
f 6/11/3 5/10/3 16/38/3 14/39/3
f 2/13/4 6/12/4 14/40/4 13/41/4
f 5/2/1 1/1/1 15/42/1 16/43/1
