# Blender v2.90.1 OBJ File: ''
# www.blender.org
mtllib threeUnitWall.mtl
o Cube
v 1.000000 3.000000 -3.000000
v 1.000000 -3.000000 -3.000000
v 1.000000 3.000000 3.000000
v 1.000000 -3.000000 3.000000
v -1.000000 3.000000 -3.000000
v -1.000000 -3.000000 -3.000000
v -1.000000 3.000000 3.000000
v -1.000000 -3.000000 3.000000
vt 0.663484 0.001592
vt 0.996817 0.001591
vt 0.996817 1.001591
vt 0.663484 1.001591
vt 0.998409 0.000000
vt 0.998409 1.000000
vt 0.665075 1.000000
vt 0.665075 0.000000
vt 1.018092 -0.025884
vt 1.018092 1.041303
vt -0.049095 1.041304
vt -0.049096 -0.025883
vt 0.666667 0.013911
vt 1.000000 0.013911
vt 1.000000 1.013910
vt 0.666667 1.013911
vt 1.035892 -0.032875
vt 1.035893 1.042093
vt -0.039075 1.042094
vt -0.039075 -0.032874
vt 0.333333 -0.000000
vt 0.333333 1.000000
vt 0.000000 1.000000
vt 0.000000 0.000000
vn 0.0000 1.0000 0.0000
vn 0.0000 0.0000 1.0000
vn -1.0000 0.0000 0.0000
vn 0.0000 -1.0000 0.0000
vn 1.0000 0.0000 0.0000
vn 0.0000 0.0000 -1.0000
usemtl Material
s off
f 1/1/1 5/2/1 7/3/1 3/4/1
f 4/5/2 3/6/2 7/7/2 8/8/2
f 8/9/3 7/10/3 5/11/3 6/12/3
f 6/13/4 2/14/4 4/15/4 8/16/4
f 2/17/5 1/18/5 3/19/5 4/20/5
f 6/21/6 5/22/6 1/23/6 2/24/6
