# Blender v2.90.1 OBJ File: ''
# www.blender.org
mtllib threeUnitWall.mtl
o Cube.001
v 1.000000 3.000002 -3.999999
v -1.000000 3.000002 -3.999999
v -1.000000 2.999998 4.000000
v 1.000000 2.999998 4.000000
v 1.000000 -3.000002 3.999999
v -1.000000 -3.000002 3.999999
v -1.000000 -2.999998 -4.000000
v 1.000000 -2.999998 -4.000000
vt 0.663484 0.001592
vt 0.996817 0.001591
vt 0.996817 1.001591
vt 0.663484 1.001591
vt 0.998409 0.000000
vt 0.998409 1.000000
vt 0.665075 1.000000
vt 0.665075 0.000000
vt 1.018092 -0.025884
vt 1.018092 1.041303
vt -0.049095 1.041304
vt -0.049096 -0.025883
vt 0.666667 0.013911
vt 1.000000 0.013911
vt 1.000000 1.013910
vt 0.666667 1.013911
vt 1.035892 -0.032875
vt 1.035893 1.042093
vt -0.039075 1.042094
vt -0.039075 -0.032874
vt 0.333333 -0.000000
vt 0.333333 1.000000
vt 0.000000 1.000000
vt 0.000000 0.000000
vn 0.0000 1.0000 0.0000
vn 0.0000 -0.0000 1.0000
vn -1.0000 0.0000 0.0000
vn 0.0000 -1.0000 -0.0000
vn 1.0000 0.0000 0.0000
vn 0.0000 0.0000 -1.0000
usemtl Material.001
s 1
f 1/1/1 2/2/1 3/3/1 4/4/1
f 5/5/2 4/6/2 3/7/2 6/8/2
f 6/9/3 3/10/3 2/11/3 7/12/3
f 7/13/4 8/14/4 5/15/4 6/16/4
f 8/17/5 1/18/5 4/19/5 5/20/5
f 7/21/6 2/22/6 1/23/6 8/24/6
